<?xml version="1.0" encoding="utf-8"?>
<!-- Generator: Adobe Illustrator 18.0.0, SVG Export Plug-In . SVG Version: 6.00 Build 0)  -->
<!DOCTYPE svg PUBLIC "-//W3C//DTD SVG 1.1//EN" "http://www.w3.org/Graphics/SVG/1.1/DTD/svg11.dtd">
<svg version="1.1" id="Layer_2" xmlns="http://www.w3.org/2000/svg" xmlns:xlink="http://www.w3.org/1999/xlink" x="0px" y="0px"
	 viewBox="-396.8 -166.2 553.4 384.8" enable-background="new -396.8 -166.2 553.4 384.8" xml:space="preserve">
<linearGradient id="SVGID_1_" gradientUnits="userSpaceOnUse" x1="-876.0684" y1="-577.9716" x2="-346.4232" y2="-48.3263" gradientTransform="matrix(0.2323 0 0 0.2323 19.1924 98.8445)">
	<stop  offset="0" style="stop-color:#6CD3C2"/>
	<stop  offset="2.817222e-02" style="stop-color:#66CEBD"/>
	<stop  offset="0.1005" style="stop-color:#5FC8B7"/>
	<stop  offset="0.26" style="stop-color:#5DC6B5"/>
	<stop  offset="1" style="stop-color:#36BBA5"/>
</linearGradient>
<circle fill="url(#SVGID_1_)" cx="-122.8" cy="26.1" r="87"/>
<path fill="#6CD3C2" d="M57.8,211c-17.9,0-37.2-1.9-57.6-5.7c-52.9-9.8-117.1-34.7-181-69.9c-68-37.6-123-78.4-159-118.1
	c-23.3-25.7-40.5-52.2-49.6-76.7c-9.6-25.8-9.9-48.1-0.9-64.5c12.8-23.2,44.7-35.9,89.7-35.9c15.4,0,32,1.5,49.5,4.5
	c57.8,9.9,125.7,35.4,191.3,71.6C4.8-48,61.7-4.7,100.5,38.2c22.7,25.1,39.4,50.5,48.4,73.7c9.7,25,10.2,46.7,1.3,62.7
	C137.2,198.1,104.4,211,57.8,211z M-300.6-135.8c-34.9,0-60.6,8.8-68.7,23.5C-379.5-94-369-50.6-322.1,1.1
	C-287.8,38.9-235,78-169.2,114.3c61.7,34,123.4,58,173.8,67.3c18.9,3.5,36.8,5.3,53.2,5.3c36.4,0,63.1-9,71.4-24
	c9.8-17.7-0.8-58.1-46.5-108.6c-37-41-91.8-82.6-154.1-117c-62.4-34.5-129.3-59.6-183.7-69C-271.3-134.4-286.5-135.8-300.6-135.8z"
	/>
<path fill="#85E0CE" d="M-298.2,218.6c-42.7,0-73.4-12-86.6-33.7c-9.4-15.6-10.1-36.9-1.8-61.7c7.7-23.2,23-49,44.2-74.6
	c37.1-44.9,93-91,157.4-129.8c63.3-38.2,129.2-65.9,185.7-78c21.8-4.7,42.2-7,60.8-7c40.4,0,69.6,11.4,82.1,32.1
	C163-102,144.5-46.3,95.3,11.2C60.2,52.1,6.6,95.4-55.6,132.9c-66.5,40.2-129.3,67.4-181.7,78.7
	C-258.8,216.3-279.3,218.6-298.2,218.6z M61.6-142.4c-16.9,0-35.7,2.2-55.8,6.5c-54,11.6-117.3,38.3-178.4,75.1
	c-61.2,37-116.4,82.4-151.3,124.7c-42.4,51.1-50.8,91.4-40.4,108.6c8.4,13.9,33.1,22.2,66,22.2c17.2,0,36-2.2,55.9-6.5
	c49.8-10.7,110-36.9,174.3-75.8C-7.9,76.1,43.6,34.6,77.2-4.6c21.4-25.1,36.9-50,44.6-72.1c6.8-19.3,7.3-35.3,1.3-45.2
	C115.2-134.9,92.8-142.4,61.6-142.4z"/>
<path fill="#FFFFFF" d="M-159.4,49.1c-0.7-1.2-1.4-2.3-2-3.5c-2-3.6-6.5-5.2-10-3.2c-3.6,2-5.2,6.3-3.2,10c0.8,1.5,1.7,3.2,2.8,4.6
	c1.4,2.2,3.9,3.5,6.2,3.5c1.4,0,2.9-0.4,4-1.2C-158.1,57.2-157.2,52.6-159.4,49.1L-159.4,49.1z"/>
<path fill="#FFFFFF" d="M-143.1,63.8c-1.2-0.7-2.3-1.3-3.5-2.1c-3.5-2.2-8.2-1.2-10.4,2.2c-2.2,3.5-1.2,8.2,2.2,10.4
	c1.5,1,3.1,2,4.6,2.8c1,0.6,2.3,0.8,3.5,0.8c2.8,0,5.3-1.4,6.6-4C-138.2,70.3-139.5,65.7-143.1,63.8L-143.1,63.8z"/>
<path fill="#FFFFFF" d="M-124.5-17.8h0.3l0,0c3.1,0,5.6-2.5,5.6-5.6s-2.5-5.6-5.6-5.6h-0.4c-3.1,0.1-5.5,2.8-5.3,5.8
	C-129.8-20.2-127.4-17.8-124.5-17.8L-124.5-17.8z"/>
<path fill="#FFFFFF" d="M-120.5,68.3c-1,0.1-2.1,0.1-3.2,0.1h-2.1c-4.2-0.1-7.6,3-7.9,7.1c-0.1,4.2,3,7.6,7.1,7.7c0.9,0,1.8,0,2.9,0
	c1.4,0,2.9,0,4.3-0.1c4.2-0.2,7.3-3.9,6.8-8.1C-112.9,71.2-116.5,68.1-120.5,68.3L-120.5,68.3z"/>
<path fill="#FFFFFF" d="M-72.5,31.9c-4.4-1-8.9,1.3-10,5.3c-0.6,2.1-1.4,4.2-2.4,6.1c-1.9,3.8,0,8.2,4.1,9.8
	c1.1,0.4,2.3,0.7,3.4,0.7c3.1,0,6.1-1.7,7.5-4.4c1.3-2.8,2.4-5.5,3.1-8.3C-65.6,37.1-68.2,32.9-72.5,31.9L-72.5,31.9z"/>
<path fill="#FFFFFF" d="M-148.4-9.2c1.2,0,2.4-0.2,3.6-1l0.3-0.2c3.3-1.9,4.5-6.2,2.6-9.5s-6.2-4.5-9.5-2.6l-0.8,0.3
	c-3.2,1.9-4.3,6.3-2.3,9.5C-153-10.4-150.9-9.2-148.4-9.2L-148.4-9.2z"/>
<path fill="#FFFFFF" d="M-96.8,58.9c-1.7,1.4-3.3,2.8-5.3,3.8c-3.5,2.1-4.6,6.7-2.5,10.3c1.4,2.3,3.9,3.6,6.3,3.6
	c1.3,0,2.5-0.2,3.9-1c2.5-1.5,5-3.2,7.3-5.2c3.1-2.5,3.6-7.4,0.9-10.6C-88.8,56.6-93.6,56.2-96.8,58.9L-96.8,58.9z"/>
<path fill="#FFFFFF" d="M-170.8,8.1c3.5,1.8,7.7,1.2,10.3-2.9l0.2-0.6c2.1-3.5,0.9-8.2-2.5-10.3c-3.5-2.1-8.2-0.9-10.3,2.8l-0.4,0.7
	C-175.7,1.5-174.5,6.1-170.8,8.1z"/>
<path fill="#FFFFFF" d="M-176.5,33.7c4.1,2.1,9.2,1.3,12-3.3l0.3-0.7c2.4-4.1,1.1-9.6-3.1-12s-9.6-1.1-12,3.2l-0.4,0.8
	C-182.1,25.9-180.7,31.4-176.5,33.7z"/>
<path fill="#FFFFFF" d="M-64.4-18.5c0-4-3.2-7.3-7.2-7.3h-26c-4,0-7.3,3.2-7.3,7.3V7.4c0,4,3.2,7.3,7.3,7.3c4,0,7.3-3.2,7.3-7.3V-3
	c3.8,4.5,6.5,9.6,8.2,15.2c0.3,1.5,0.6,2,0.7,3c0.7,3.4,3.8,5.7,7,5.7c0.6,0,1,0,1.5-0.1c3.9-0.8,6.4-4.6,5.6-8.5
	c-0.1-1-0.6-2.2-1-4.1c-2-7-5.5-13.7-10-19.4h6.7C-67.7-11.2-64.4-14.4-64.4-18.5L-64.4-18.5z"/>
</svg>
